<?xml version="1.0" encoding="utf-8"?>
<!-- Generator: Adobe Illustrator 24.3.0, SVG Export Plug-In . SVG Version: 6.00 Build 0)  -->
<svg version="1.1" id="Layer_1" xmlns="http://www.w3.org/2000/svg" xmlns:xlink="http://www.w3.org/1999/xlink" x="0px" y="0px"
	 viewBox="0 0 24 24" style="enable-background:new 0 0 24 24;" xml:space="preserve">
<style type="text/css">
	.st0{fill:none;}
	.st1{fill:#1A9BFB;}
	.st2{fill:#FFFFFF;}
</style>
<path class="st0" d="M0,0h24v24H0V0z"/>
<circle class="st1" cx="12" cy="11.9" r="11.3"/>
<path class="st2" d="M15.1,5.1l-6.2,0c-0.7,0-1.2,0.6-1.2,1.2v11.2c0,0.7,0.6,1.2,1.2,1.2h6.2c0.7,0,1.2-0.6,1.2-1.2V6.4
	C16.4,5.7,15.8,5.1,15.1,5.1z M15.1,16.3H8.9V7.6h6.2V16.3z"/>
<path id="Path_860" class="st2" d="M12.5,11.1v-1l1.7,1.7l-1.7,1.7v-1c-1.2,0-2.1,0.4-2.7,1.2C10.1,12.6,10.8,11.3,12.5,11.1z"/>
</svg>
