<?xml version="1.0" encoding="UTF-8"?>
<svg xmlns="http://www.w3.org/2000/svg" xmlns:xlink="http://www.w3.org/1999/xlink" viewBox="0 0 240 240" width="240px" height="240px">
<g id="surface10068495">
<path style="fill-rule:nonzero;fill:rgb(78.431374%,90.196079%,78.823531%);fill-opacity:1;stroke-width:10;stroke-linecap:butt;stroke-linejoin:round;stroke:rgb(53.333336%,53.333336%,53.333336%);stroke-opacity:1;stroke-miterlimit:10;" d="M 128.999408 150.500594 L 43.000593 150.500594 C 31.124284 150.500594 21.499408 140.875718 21.499408 128.999408 L 21.499408 43.000593 C 21.499408 31.124284 31.124284 21.499408 43.000593 21.499408 L 128.999408 21.499408 C 140.875718 21.499408 150.500594 31.124284 150.500594 43.000593 L 150.500594 128.999408 C 150.500594 140.875718 140.875718 150.500594 128.999408 150.500594 Z M 128.999408 150.500594 " transform="matrix(1.318605,0,0,1.318605,6.6,6.6)"/>
<path style="fill-rule:nonzero;fill:rgb(29.803923%,68.627453%,31.37255%);fill-opacity:1;stroke-width:10;stroke-linecap:butt;stroke-linejoin:round;stroke:rgb(53.333336%,53.333336%,53.333336%);stroke-opacity:1;stroke-miterlimit:10;" d="M 134.071058 62.401428 L 75.317544 121.217153 L 45.103905 91.074612 L 55.229429 80.925389 L 75.299769 100.948331 L 123.930722 52.267017 Z M 134.071058 62.401428 " transform="matrix(1.318605,0,0,1.318605,6.6,6.6)"/>
<path style=" stroke:none;fill-rule:nonzero;fill:rgb(100.000000%,100.000000%,100.000000%);fill-opacity:1;" d="M 176.699219 205.050781 L 63.300781 205.050781 C 47.640625 205.050781 34.949219 192.359375 34.949219 176.699219 L 34.949219 63.300781 C 34.949219 47.640625 47.640625 34.949219 63.300781 34.949219 L 176.699219 34.949219 C 192.359375 34.949219 205.050781 47.640625 205.050781 63.300781 L 205.050781 176.699219 C 205.050781 192.359375 192.359375 205.050781 176.699219 205.050781 Z M 176.699219 205.050781 "/>
</g>
</svg>
