<svg width="239" height="317" viewBox="0 0 239 317" fill="none" xmlns="http://www.w3.org/2000/svg">
<path fill-rule="evenodd" clip-rule="evenodd" d="M182.974 117.104C186.178 113.344 188.346 108.735 187.984 103.571C186.94 88.6919 166.228 91.9651 162.199 99.4748C158.17 106.984 158.649 126.033 163.856 127.375C165.932 127.911 170.356 126.6 174.858 123.886L172.032 143.879H188.719L182.974 117.104Z" fill="#B28B67"/>
<path fill-rule="evenodd" clip-rule="evenodd" d="M195.259 98.618C195.798 98.084 196.092 97.3216 196.346 96.5978C196.61 95.8458 196.867 95.0861 197.042 94.3035C197.393 92.7396 197.396 90.9412 196.28 89.7269C195.386 88.7532 194.043 88.3164 192.804 88.2215C191.979 88.1582 191.131 88.2738 190.34 88.5339C189.555 88.792 188.878 89.3063 188.117 89.6255C188.088 87.9403 187.799 86.1769 186.944 84.738C186.121 83.3535 184.81 82.5766 183.316 82.3711C181.783 82.1601 180.269 82.5189 178.896 83.2612C178.553 83.4471 178.212 83.6418 177.886 83.8622C177.613 84.0468 177.33 84.2691 177.01 84.3442C176.653 84.4279 176.476 84.2218 176.244 83.9615C175.972 83.6563 175.666 83.3874 175.342 83.1491C173.908 82.0954 172.027 81.6622 170.367 82.2938C169.602 82.5848 168.858 83.0789 168.338 83.7599C167.876 84.3669 167.546 85.3298 166.907 85.7527C166.636 85.9322 166.445 85.6944 166.198 85.5186C165.827 85.2545 165.474 84.963 165.098 84.7061C164.572 84.3451 164.001 84.075 163.39 83.9337C162.496 83.7268 161.26 83.7753 161.004 84.9467C160.908 85.3867 160.982 85.8573 161.013 86.3006C161.055 86.9093 161.1 87.5179 161.152 88.1257C161.193 88.5872 161.243 89.033 161.33 89.4862C161.377 89.7278 161.522 90.1781 161.419 90.4201C161.289 90.7225 160.692 90.5506 160.436 90.5611C159.932 90.5819 159.426 90.6703 158.96 90.8857C158.598 91.0528 158.219 91.2984 158.066 91.7125C157.972 91.9669 157.997 92.2282 158.041 92.4899C158.094 92.804 158.034 92.9706 157.994 93.2875C157.317 92.954 154.97 92.2132 154.675 93.4268C154.577 93.8309 154.8 94.2875 154.971 94.6283C155.271 95.226 155.664 95.7723 156.065 96.2934C156.903 97.3803 157.902 98.3178 158.978 99.1196C157.718 99.6799 157.389 101.333 158.48 102.317C158.962 102.752 159.61 102.849 160.217 102.821C160.44 102.811 160.76 102.725 160.935 102.764C161.03 102.785 161.131 102.865 161.261 102.874C162.119 102.932 163.087 102.726 163.925 102.535C165.419 102.196 166.834 101.488 167.989 100.41C168.285 100.134 168.53 99.9747 168.929 99.9788C169.278 99.9823 169.621 100.078 169.97 100.087C170.894 100.111 171.727 99.659 172.585 99.3584C172.637 100.517 172.967 101.794 173.441 102.836C173.828 103.686 174.635 103.81 175.429 103.885C177.965 104.123 180.511 103.857 183.051 103.86C180.592 104.416 178.051 104.645 175.615 105.299C174.513 105.595 175.354 106.337 175.825 106.852C176.601 107.699 177.177 108.749 177.577 109.856C178.78 108.288 180.906 107.255 182.789 107.736C184.871 108.268 186.336 111.083 185.005 113.106C184.233 114.281 182.837 114.734 181.676 115.239C182.582 116.18 182.801 117.571 183.346 118.742C183.615 119.32 183.992 119.973 184.594 120.174C184.816 120.249 185.077 120.255 185.252 120.437C185.47 120.661 185.522 120.912 185.799 121.105C186.907 121.875 188.637 121.816 189.619 120.811C190.507 119.902 190.276 118.464 189.534 117.542C190.715 117.05 192.865 116.417 192.396 114.578C194.954 114.408 201.164 110.26 197.731 107.229C199.616 106.164 201.346 103.562 200.136 101.268C199.204 99.5013 197.037 98.7117 195.259 98.618Z" fill="#191847"/>
<path fill-rule="evenodd" clip-rule="evenodd" d="M218.878 230.787H165.165L158.127 317H238.083L218.878 230.787Z" fill="#C5CFD6"/>
<path fill-rule="evenodd" clip-rule="evenodd" d="M218.878 230.787H202.358L192.471 317H238.083L218.878 230.787Z" fill="black" fill-opacity="0.1"/>
<path fill-rule="evenodd" clip-rule="evenodd" d="M103.929 216.017C98.2019 212.578 88.5938 216.996 88.6004 221.914C88.6201 236.629 102.049 305.981 102.75 310.365C103.451 314.749 110.962 315.907 111.4 310.379C112.096 301.584 113.389 271.135 112.095 257.042C111.561 251.225 110.986 245.684 110.42 240.742C117.467 253.467 128.365 271.687 143.114 295.401L151.121 291.742C144.833 271.026 139.678 256.401 135.654 247.867C128.764 233.255 122.303 220.742 119.584 216.334C115.307 209.4 107.862 211.82 103.929 216.017Z" fill="#B28B67"/>
<path fill-rule="evenodd" clip-rule="evenodd" d="M150.549 280.238L123.067 215.135C116.483 204.544 98.024 217.29 100.269 223.432C105.366 237.378 131.29 282.525 132.809 286.679L150.549 280.238Z" fill="#1F28CF"/>
<path fill-rule="evenodd" clip-rule="evenodd" d="M152.075 287.637C153.787 289.046 154.901 290.197 155.416 291.09C156.043 292.176 156.777 293.865 157.618 296.157C156.358 296.884 145.038 303.42 123.657 315.764C121.09 313.356 120.69 311.486 122.457 310.156C124.225 308.826 125.683 307.704 126.832 306.79L138.554 290.64C138.78 290.329 139.214 290.26 139.525 290.486C139.53 290.49 139.536 290.494 139.541 290.498L141.976 292.373C144.211 292.178 145.878 291.763 146.979 291.127C147.873 290.611 148.899 289.537 150.058 287.905L150.058 287.905C150.502 287.279 151.37 287.132 151.996 287.577C152.023 287.596 152.05 287.616 152.075 287.637Z" fill="#E4E4E4"/>
<path fill-rule="evenodd" clip-rule="evenodd" d="M113.159 306.85C113.937 308.927 114.325 310.48 114.325 311.511C114.325 312.765 114.117 314.595 113.699 317C112.244 317 99.173 317 74.4846 317C73.4655 313.631 74.0538 311.812 76.2493 311.544C78.4448 311.275 80.2687 311.032 81.7209 310.816L99.9473 302.691C100.298 302.534 100.709 302.692 100.865 303.042C100.868 303.048 100.871 303.055 100.873 303.061L102.045 305.903C104.077 306.851 105.729 307.325 107 307.325C108.032 307.325 109.458 306.908 111.277 306.074L111.277 306.074C111.975 305.754 112.801 306.061 113.121 306.759C113.134 306.789 113.147 306.819 113.159 306.85Z" fill="#E4E4E4"/>
<path fill-rule="evenodd" clip-rule="evenodd" d="M86.6744 226.916C86.6744 245.387 95.4464 288.473 95.452 292.541L114.325 292.555C111.563 254.11 110.583 234.68 111.387 234.266C112.592 233.645 160.786 239.078 175.24 239.078C196.083 239.078 204.706 225.934 205.405 201.586H164.116C155.709 202.485 111.858 211.33 95.5726 214.371C88.6005 215.672 86.6744 221.828 86.6744 226.916Z" fill="#2B44FF"/>
<path fill-rule="evenodd" clip-rule="evenodd" d="M157.684 158.271L133.551 145.053C129.538 140.288 125.584 136.587 121.689 133.95C120.499 133.453 118.418 133.152 120.364 136.607C122.31 140.062 124.202 143.783 123.211 144.847C122.219 145.912 119.746 144.425 118.563 146.193C117.775 147.372 121.999 149.235 131.237 151.78L148.772 167.836L157.684 158.271ZM119.888 169.423L109.287 163.599C107.8 157.94 106.022 155.092 103.953 155.057C102.364 154.317 105.132 161.469 102.119 160.848C99.1066 160.228 91.7541 154.76 90.4872 155.87C88.613 157.513 90.2842 162.557 92.2533 165.065C95.9335 169.755 98.9805 171.358 106.512 173.458C110.449 174.556 114.707 176.757 119.284 180.06L119.888 169.423Z" fill="#997659"/>
<path fill-rule="evenodd" clip-rule="evenodd" d="M169.436 155.327C160.984 155.237 149.712 153.452 137.685 145.818L132.961 156.351C141.257 164.584 152.922 171.348 163.122 171.062C171.16 170.836 175.268 161.114 169.436 155.327Z" fill="#2026A2"/>
<path fill-rule="evenodd" clip-rule="evenodd" d="M158.055 172.219C149.081 174.457 134.033 171.817 112.91 164.301C107.671 175.14 105.249 182.868 105.644 187.484C123.764 196.949 139.295 201.169 152.09 201.448C151.683 209.04 152.607 216.264 155.712 222.865C162.094 236.435 199.464 223.868 212.029 226.341C219.898 200.787 204.684 190.402 204.671 174.051C204.658 156.145 190.28 128.583 188.165 128.583H168.873C167.809 142.258 162.451 157.329 158.055 172.219Z" fill="#1F28CF"/>
<path d="M109.423 19.2029H45.3093C40.4258 19.2029 36.467 23.1617 36.467 28.0451V144.777C36.467 149.66 40.4258 153.619 45.3093 153.619H109.423C114.306 153.619 118.265 149.66 118.265 144.777V28.0451C118.265 23.1617 114.306 19.2029 109.423 19.2029Z" fill="#9B9B9A"/>
<path d="M109.057 132.177H45.6719C45.0527 132.175 44.4594 131.928 44.0217 131.49C43.5841 131.052 43.3377 130.458 43.3364 129.839V36.354C43.3377 35.7344 43.5844 35.1404 44.0226 34.7023C44.4608 34.2641 45.0547 34.0174 45.6743 34.0161H109.06C109.679 34.018 110.272 34.265 110.71 34.7031C111.147 35.1412 111.394 35.7348 111.395 36.354V129.839C111.414 130.151 111.366 130.463 111.255 130.755C111.144 131.047 110.972 131.312 110.751 131.532C110.531 131.753 110.265 131.925 109.973 132.035C109.681 132.146 109.369 132.193 109.057 132.174V132.177Z" fill="#3F3F3F"/>
<path d="M74.8154 53.0366C72.4723 53.043 70.2269 53.9766 68.5701 55.6335C66.9132 57.2903 65.9796 59.5357 65.9732 61.8788V97.9133C65.9712 98.0438 66.0036 98.1726 66.067 98.2867C66.1305 98.4008 66.2228 98.4962 66.3348 98.5634C66.4467 98.6305 66.5744 98.6671 66.7049 98.6694C66.8354 98.6717 66.9643 98.6396 67.0785 98.5765L78.1313 88.85C78.3055 88.6822 78.515 88.5554 78.7444 88.479C78.9739 88.4025 79.2176 88.3782 79.4576 88.4079H140.69C143.033 88.4016 145.279 87.4679 146.935 85.8111C148.592 84.1542 149.526 81.9088 149.532 79.5657V61.8812C149.526 59.5381 148.592 57.2927 146.935 55.6359C145.279 53.979 143.033 53.0454 140.69 53.039L74.8154 53.0366Z" fill="#FCEA2B"/>
<path d="M111.393 95.0226V129.839C111.411 130.15 111.364 130.462 111.253 130.754C111.142 131.046 110.971 131.311 110.75 131.532C110.529 131.752 110.264 131.924 109.972 132.034C109.681 132.145 109.369 132.193 109.057 132.174H45.6719C45.0531 132.172 44.4602 131.926 44.0226 131.488C43.585 131.051 43.3383 130.458 43.3364 129.839V36.354C43.3377 35.7344 43.5844 35.1404 44.0226 34.7023C44.4608 34.2641 45.0547 34.0174 45.6743 34.0161H109.06C109.679 34.018 110.272 34.265 110.71 34.7031C111.147 35.1412 111.394 35.7348 111.395 36.354V45.7297" stroke="black" stroke-width="2" stroke-linecap="round" stroke-linejoin="round"/>
<path d="M77.3646 147.076C79.9456 147.076 82.038 144.984 82.038 142.403C82.038 139.822 79.9456 137.729 77.3646 137.729C74.7835 137.729 72.6912 139.822 72.6912 142.403C72.6912 144.984 74.7835 147.076 77.3646 147.076Z" fill="black"/>
<path d="M65.6799 27.0071H89.0518H65.6799V27.0071Z" stroke="black" stroke-width="2" stroke-linecap="round" stroke-linejoin="round"/>
<path d="M118.265 95.0225V144.777C118.258 147.12 117.325 149.365 115.668 151.022C114.011 152.679 111.766 153.613 109.423 153.619H45.3093C42.9661 153.613 40.7207 152.679 39.0639 151.022C37.407 149.365 36.4734 147.12 36.467 144.777V28.0451C36.4734 25.7019 37.407 23.4566 39.0639 21.7997C40.7207 20.1428 42.9661 19.2092 45.3093 19.2029H109.423C111.766 19.2092 114.011 20.1428 115.668 21.7997C117.325 23.4566 118.258 25.7019 118.265 28.0451V45.7295" stroke="black" stroke-width="2" stroke-linecap="round" stroke-linejoin="round"/>
<path d="M74.8154 53.0364C72.4723 53.0427 70.2269 53.9763 68.5701 55.6332C66.9132 57.2901 65.9796 59.5354 65.9732 61.8786V97.9131C65.9712 98.0436 66.0036 98.1724 66.067 98.2865C66.1305 98.4005 66.2228 98.496 66.3348 98.5631C66.4467 98.6303 66.5744 98.6669 66.7049 98.6692C66.8354 98.6715 66.9643 98.6394 67.0785 98.5762L78.1313 88.8498C78.3055 88.682 78.515 88.5552 78.7444 88.4787C78.9739 88.4022 79.2176 88.3779 79.4576 88.4077H140.69C143.033 88.4013 145.279 87.4677 146.935 85.8108C148.592 84.154 149.526 81.9086 149.532 79.5654V61.881C149.526 59.5378 148.592 57.2925 146.935 55.6356C145.279 53.9787 143.033 53.0451 140.69 53.0388L74.8154 53.0364Z" stroke="black" stroke-width="2" stroke-miterlimit="10"/>
<path d="M81.918 72H80.8813L76.9443 65.9736V72H75.9077V64.1797H76.9443L80.8921 70.2329V64.1797H81.918V72ZM83.3306 69.0405C83.3306 68.4712 83.4416 67.9591 83.6636 67.5044C83.8892 67.0496 84.2007 66.6987 84.5981 66.4517C84.9992 66.2046 85.4557 66.0811 85.9678 66.0811C86.7591 66.0811 87.3983 66.355 87.8853 66.9028C88.3758 67.4507 88.6211 68.1794 88.6211 69.0889V69.1587C88.6211 69.7244 88.5119 70.2329 88.2935 70.6841C88.0786 71.1317 87.7689 71.4808 87.3643 71.7314C86.9632 71.9821 86.5013 72.1074 85.9785 72.1074C85.1908 72.1074 84.5516 71.8335 84.061 71.2856C83.5741 70.7378 83.3306 70.0127 83.3306 69.1104V69.0405ZM84.3296 69.1587C84.3296 69.8032 84.4782 70.3206 84.7754 70.7109C85.0762 71.1012 85.4772 71.2964 85.9785 71.2964C86.4834 71.2964 86.8844 71.0994 87.1816 70.7056C87.4788 70.3081 87.6274 69.7531 87.6274 69.0405C87.6274 68.4032 87.4753 67.8875 87.1709 67.4937C86.8701 67.0962 86.4691 66.8975 85.9678 66.8975C85.4772 66.8975 85.0815 67.0926 84.7808 67.4829C84.48 67.8732 84.3296 68.4318 84.3296 69.1587ZM94.0835 64.1797L96.6401 70.5605L99.1968 64.1797H100.534V72H99.5029V68.9546L99.5996 65.6675L97.0322 72H96.2427L93.6807 65.6836L93.7827 68.9546V72H92.7515V64.1797H94.0835ZM104.611 72.1074C103.823 72.1074 103.182 71.8496 102.688 71.334C102.194 70.8148 101.947 70.1219 101.947 69.2554V69.0728C101.947 68.4963 102.056 67.9824 102.274 67.5312C102.496 67.0765 102.804 66.722 103.198 66.4678C103.596 66.21 104.025 66.0811 104.487 66.0811C105.243 66.0811 105.83 66.3299 106.249 66.8276C106.668 67.3254 106.877 68.0379 106.877 68.9653V69.3789H102.94C102.955 69.9518 103.121 70.4155 103.44 70.77C103.762 71.1209 104.17 71.2964 104.665 71.2964C105.015 71.2964 105.313 71.2248 105.556 71.0815C105.8 70.9383 106.013 70.7485 106.195 70.5122L106.802 70.9849C106.315 71.7332 105.585 72.1074 104.611 72.1074ZM104.487 66.8975C104.086 66.8975 103.75 67.0443 103.478 67.3379C103.205 67.6279 103.037 68.0361 102.973 68.5625H105.884V68.4873C105.855 67.9824 105.719 67.5921 105.476 67.3164C105.232 67.0371 104.903 66.8975 104.487 66.8975ZM111.416 70.4585C111.416 70.1899 111.314 69.9823 111.11 69.8354C110.909 69.6851 110.557 69.5562 110.052 69.4487C109.55 69.3413 109.151 69.2124 108.854 69.062C108.56 68.9116 108.342 68.7326 108.199 68.5249C108.059 68.3172 107.989 68.0701 107.989 67.7837C107.989 67.3075 108.19 66.9046 108.591 66.5752C108.995 66.2458 109.511 66.0811 110.138 66.0811C110.797 66.0811 111.33 66.2511 111.738 66.5913C112.15 66.9315 112.356 67.3665 112.356 67.8965H111.357C111.357 67.6243 111.241 67.3898 111.008 67.1929C110.779 66.9959 110.489 66.8975 110.138 66.8975C109.776 66.8975 109.493 66.9762 109.289 67.1338C109.085 67.2913 108.983 67.4972 108.983 67.7515C108.983 67.9914 109.078 68.1722 109.268 68.2939C109.457 68.4157 109.799 68.5321 110.293 68.6431C110.791 68.7541 111.194 68.8866 111.502 69.0405C111.81 69.1945 112.037 69.3807 112.184 69.5991C112.334 69.814 112.41 70.0771 112.41 70.3887C112.41 70.9079 112.202 71.325 111.787 71.6401C111.371 71.9517 110.832 72.1074 110.17 72.1074C109.704 72.1074 109.293 72.0251 108.935 71.8604C108.576 71.6956 108.295 71.4665 108.091 71.1729C107.891 70.8757 107.791 70.5552 107.791 70.2114H108.784C108.802 70.5444 108.935 70.8094 109.182 71.0063C109.432 71.1997 109.762 71.2964 110.17 71.2964C110.546 71.2964 110.847 71.2212 111.072 71.0708C111.301 70.9168 111.416 70.7127 111.416 70.4585ZM117.088 70.4585C117.088 70.1899 116.986 69.9823 116.782 69.8354C116.581 69.6851 116.229 69.5562 115.724 69.4487C115.222 69.3413 114.823 69.2124 114.526 69.062C114.232 68.9116 114.014 68.7326 113.871 68.5249C113.731 68.3172 113.661 68.0701 113.661 67.7837C113.661 67.3075 113.862 66.9046 114.263 66.5752C114.667 66.2458 115.183 66.0811 115.81 66.0811C116.468 66.0811 117.002 66.2511 117.41 66.5913C117.822 66.9315 118.028 67.3665 118.028 67.8965H117.029C117.029 67.6243 116.912 67.3898 116.68 67.1929C116.451 66.9959 116.16 66.8975 115.81 66.8975C115.448 66.8975 115.165 66.9762 114.961 67.1338C114.757 67.2913 114.655 67.4972 114.655 67.7515C114.655 67.9914 114.75 68.1722 114.939 68.2939C115.129 68.4157 115.471 68.5321 115.965 68.6431C116.463 68.7541 116.866 68.8866 117.174 69.0405C117.482 69.1945 117.709 69.3807 117.856 69.5991C118.006 69.814 118.082 70.0771 118.082 70.3887C118.082 70.9079 117.874 71.325 117.458 71.6401C117.043 71.9517 116.504 72.1074 115.842 72.1074C115.376 72.1074 114.965 72.0251 114.606 71.8604C114.248 71.6956 113.967 71.4665 113.763 71.1729C113.563 70.8757 113.462 70.5552 113.462 70.2114H114.456C114.474 70.5444 114.606 70.8094 114.854 71.0063C115.104 71.1997 115.434 71.2964 115.842 71.2964C116.218 71.2964 116.519 71.2212 116.744 71.0708C116.973 70.9168 117.088 70.7127 117.088 70.4585ZM122.964 72C122.907 71.8854 122.86 71.6813 122.824 71.3877C122.362 71.8675 121.811 72.1074 121.17 72.1074C120.597 72.1074 120.126 71.9463 119.757 71.624C119.392 71.2982 119.209 70.8864 119.209 70.3887C119.209 69.7835 119.439 69.3145 119.897 68.9814C120.359 68.6449 121.007 68.4766 121.841 68.4766H122.808V68.02C122.808 67.6727 122.704 67.397 122.497 67.1929C122.289 66.9852 121.983 66.8813 121.578 66.8813C121.224 66.8813 120.926 66.9709 120.687 67.1499C120.447 67.3289 120.327 67.5456 120.327 67.7998H119.328C119.328 67.5098 119.43 67.2305 119.634 66.9619C119.841 66.6898 120.121 66.4749 120.472 66.3174C120.826 66.1598 121.215 66.0811 121.637 66.0811C122.307 66.0811 122.831 66.2493 123.211 66.5859C123.59 66.9189 123.787 67.3791 123.802 67.9663V70.6411C123.802 71.1746 123.87 71.599 124.006 71.9141V72H122.964ZM121.315 71.2427C121.626 71.2427 121.922 71.1621 122.201 71.001C122.48 70.8398 122.683 70.6304 122.808 70.3726V69.1802H122.029C120.812 69.1802 120.203 69.5365 120.203 70.249C120.203 70.5605 120.307 70.804 120.515 70.9795C120.722 71.1549 120.989 71.2427 121.315 71.2427ZM125.123 69.0459C125.123 68.14 125.333 67.4202 125.751 66.8867C126.17 66.3496 126.725 66.0811 127.417 66.0811C128.125 66.0811 128.679 66.3317 129.076 66.833L129.125 66.1885H130.032V71.8604C130.032 72.6123 129.808 73.2049 129.361 73.6382C128.917 74.0715 128.319 74.2881 127.567 74.2881C127.148 74.2881 126.738 74.1986 126.337 74.0195C125.936 73.8405 125.63 73.5952 125.418 73.2837L125.934 72.6875C126.36 73.2139 126.881 73.4771 127.497 73.4771C127.98 73.4771 128.356 73.341 128.625 73.0688C128.897 72.7967 129.033 72.4136 129.033 71.9194V71.4199C128.636 71.8783 128.093 72.1074 127.406 72.1074C126.725 72.1074 126.174 71.8335 125.751 71.2856C125.333 70.7378 125.123 69.9912 125.123 69.0459ZM126.122 69.1587C126.122 69.814 126.256 70.3296 126.525 70.7056C126.793 71.078 127.169 71.2642 127.653 71.2642C128.279 71.2642 128.74 70.9795 129.033 70.4102V67.7568C128.729 67.2018 128.272 66.9243 127.664 66.9243C127.18 66.9243 126.802 67.1123 126.53 67.4883C126.258 67.8643 126.122 68.4211 126.122 69.1587ZM133.948 72.1074C133.16 72.1074 132.519 71.8496 132.025 71.334C131.531 70.8148 131.284 70.1219 131.284 69.2554V69.0728C131.284 68.4963 131.393 67.9824 131.611 67.5312C131.833 67.0765 132.141 66.722 132.535 66.4678C132.933 66.21 133.362 66.0811 133.824 66.0811C134.58 66.0811 135.167 66.3299 135.586 66.8276C136.005 67.3254 136.214 68.0379 136.214 68.9653V69.3789H132.277C132.292 69.9518 132.458 70.4155 132.777 70.77C133.099 71.1209 133.507 71.2964 134.001 71.2964C134.352 71.2964 134.65 71.2248 134.893 71.0815C135.137 70.9383 135.35 70.7485 135.532 70.5122L136.139 70.9849C135.652 71.7332 134.922 72.1074 133.948 72.1074ZM133.824 66.8975C133.423 66.8975 133.087 67.0443 132.814 67.3379C132.542 67.6279 132.374 68.0361 132.31 68.5625H135.221V68.4873C135.192 67.9824 135.056 67.5921 134.812 67.3164C134.569 67.0371 134.24 66.8975 133.824 66.8975ZM140.753 70.4585C140.753 70.1899 140.651 69.9823 140.447 69.8354C140.246 69.6851 139.894 69.5562 139.389 69.4487C138.887 69.3413 138.488 69.2124 138.191 69.062C137.897 68.9116 137.679 68.7326 137.536 68.5249C137.396 68.3172 137.326 68.0701 137.326 67.7837C137.326 67.3075 137.527 66.9046 137.928 66.5752C138.332 66.2458 138.848 66.0811 139.475 66.0811C140.133 66.0811 140.667 66.2511 141.075 66.5913C141.487 66.9315 141.693 67.3665 141.693 67.8965H140.694C140.694 67.6243 140.577 67.3898 140.345 67.1929C140.116 66.9959 139.826 66.8975 139.475 66.8975C139.113 66.8975 138.83 66.9762 138.626 67.1338C138.422 67.2913 138.32 67.4972 138.32 67.7515C138.32 67.9914 138.415 68.1722 138.604 68.2939C138.794 68.4157 139.136 68.5321 139.63 68.6431C140.128 68.7541 140.531 68.8866 140.839 69.0405C141.147 69.1945 141.374 69.3807 141.521 69.5991C141.671 69.814 141.747 70.0771 141.747 70.3887C141.747 70.9079 141.539 71.325 141.124 71.6401C140.708 71.9517 140.169 72.1074 139.507 72.1074C139.041 72.1074 138.63 72.0251 138.271 71.8604C137.913 71.6956 137.632 71.4665 137.428 71.1729C137.228 70.8757 137.127 70.5552 137.127 70.2114H138.121C138.139 70.5444 138.271 70.8094 138.519 71.0063C138.769 71.1997 139.099 71.2964 139.507 71.2964C139.883 71.2964 140.184 71.2212 140.409 71.0708C140.638 70.9168 140.753 70.7127 140.753 70.4585Z" fill="black"/>
</svg>
