<svg width="98" height="40" viewBox="0 0 98 40" fill="none" xmlns="http://www.w3.org/2000/svg">
<path d="M29.2203 15.1907C30.0088 15.4433 30.6994 15.9343 31.197 16.596C31.6946 17.2577 31.9746 18.0576 31.9984 18.8851C32.0221 19.7127 31.7885 20.5273 31.3297 21.2165C30.871 21.9057 30.2097 22.4355 29.437 22.733L28.8657 21.2489C29.3312 21.0697 29.7296 20.7505 30.006 20.3353C30.2823 19.9201 30.4231 19.4294 30.4087 18.9308C30.3944 18.4322 30.2258 17.9504 29.926 17.5518C29.6262 17.1531 29.2102 16.8573 28.7352 16.7051L29.2203 15.1907Z" fill="black"/>
<path d="M34.8305 13.286C36.0132 13.6649 37.0492 14.4015 37.7955 15.394C38.5419 16.3866 38.9619 17.5863 38.9975 18.8277C39.0332 20.0691 38.6828 21.2909 37.9946 22.3247C37.3065 23.3585 36.3145 24.1533 35.1555 24.5994L34.532 22.9798C35.3558 22.6627 36.0608 22.0978 36.5499 21.363C37.039 20.6283 37.2881 19.7598 37.2627 18.8775C37.2374 17.9952 36.9389 17.1425 36.4084 16.4371C35.8779 15.7316 35.1416 15.2081 34.301 14.9388L34.8305 13.286Z" fill="black"/>
<path d="M41.4407 11.3814C43.0176 11.8866 44.3989 12.8686 45.394 14.192C46.3892 15.5155 46.9492 17.1151 46.9967 18.7703C47.0442 20.4254 46.577 22.0546 45.6595 23.433C44.742 24.8113 43.4193 25.8711 41.874 26.4659L41.2012 24.7183C42.3848 24.2626 43.3979 23.451 44.1006 22.3953C44.8034 21.3395 45.1612 20.0918 45.1248 18.8241C45.0884 17.5563 44.6595 16.3312 43.8973 15.3175C43.1351 14.3039 42.0771 13.5517 40.8693 13.1648L41.4407 11.3814Z" fill="black"/>
<path d="M91.3333 30C93.1667 30 94.65 28.5 94.65 26.6667L94.6667 10C94.6667 9.11597 94.3155 8.26812 93.6904 7.643C93.0652 7.01788 92.2174 6.66669 91.3333 6.66669H64.6667C62.8167 6.66669 61.3333 8.15002 61.3333 10V26.6667C61.3333 27.5507 61.6845 28.3986 62.3096 29.0237C62.9348 29.6488 63.7826 30 64.6667 30H58V33.3334H98V30H91.3333ZM64.6667 26.6667V10H91.3333V26.6834L64.6667 26.6667Z" fill="black"/>
<path d="M74.3635 14.091C74.3635 14.2517 74.2996 14.4059 74.186 14.5195C74.0723 14.6332 73.9182 14.697 73.7574 14.697C73.5967 14.697 73.4425 14.6332 73.3289 14.5195C73.2152 14.4059 73.1514 14.2517 73.1514 14.091C73.1514 13.9302 73.2152 13.7761 73.3289 13.6624C73.4425 13.5488 73.5967 13.4849 73.7574 13.4849C73.9182 13.4849 74.0723 13.5488 74.186 13.6624C74.2996 13.7761 74.3635 13.9302 74.3635 14.091Z" fill="black"/>
<path d="M73.7574 16.5152C73.9182 16.5152 74.0723 16.4513 74.186 16.3376C74.2996 16.224 74.3635 16.0698 74.3635 15.9091C74.3635 15.7484 74.2996 15.5942 74.186 15.4806C74.0723 15.3669 73.9182 15.303 73.7574 15.303C73.5967 15.303 73.4425 15.3669 73.3289 15.4806C73.2152 15.5942 73.1514 15.7484 73.1514 15.9091C73.1514 16.0698 73.2152 16.224 73.3289 16.3376C73.4425 16.4513 73.5967 16.5152 73.7574 16.5152Z" fill="black"/>
<path d="M74.3635 22.5758C74.3635 22.7365 74.2996 22.8907 74.186 23.0043C74.0723 23.118 73.9182 23.1818 73.7574 23.1818C73.5967 23.1818 73.4425 23.118 73.3289 23.0043C73.2152 22.8907 73.1514 22.7365 73.1514 22.5758C73.1514 22.4151 73.2152 22.2609 73.3289 22.1472C73.4425 22.0336 73.5967 21.9697 73.7574 21.9697C73.9182 21.9697 74.0723 22.0336 74.186 22.1472C74.2996 22.2609 74.3635 22.4151 74.3635 22.5758Z" fill="black"/>
<path d="M73.7574 18.3333C73.9182 18.3333 74.0723 18.2695 74.186 18.1558C74.2996 18.0422 74.3635 17.888 74.3635 17.7273C74.3635 17.5665 74.2996 17.4124 74.186 17.2987C74.0723 17.1851 73.9182 17.1212 73.7574 17.1212C73.5967 17.1212 73.4425 17.1851 73.3289 17.2987C73.2152 17.4124 73.1514 17.5665 73.1514 17.7273C73.1514 17.888 73.2152 18.0422 73.3289 18.1558C73.4425 18.2695 73.5967 18.3333 73.7574 18.3333Z" fill="black"/>
<path d="M76.1818 14.091C76.1818 14.2517 76.118 14.4059 76.0043 14.5195C75.8907 14.6332 75.7365 14.697 75.5758 14.697C75.4151 14.697 75.2609 14.6332 75.1472 14.5195C75.0336 14.4059 74.9697 14.2517 74.9697 14.091C74.9697 13.9302 75.0336 13.7761 75.1472 13.6624C75.2609 13.5488 75.4151 13.4849 75.5758 13.4849C75.7365 13.4849 75.8907 13.5488 76.0043 13.6624C76.118 13.7761 76.1818 13.9302 76.1818 14.091Z" fill="black"/>
<path d="M75.5758 16.5152C75.7365 16.5152 75.8907 16.4513 76.0043 16.3376C76.118 16.224 76.1818 16.0698 76.1818 15.9091C76.1818 15.7484 76.118 15.5942 76.0043 15.4806C75.8907 15.3669 75.7365 15.303 75.5758 15.303C75.4151 15.303 75.2609 15.3669 75.1472 15.4806C75.0336 15.5942 74.9697 15.7484 74.9697 15.9091C74.9697 16.0698 75.0336 16.224 75.1472 16.3376C75.2609 16.4513 75.4151 16.5152 75.5758 16.5152Z" fill="black"/>
<path d="M76.1818 22.5758C76.1818 22.7365 76.118 22.8907 76.0043 23.0043C75.8907 23.118 75.7365 23.1818 75.5758 23.1818C75.4151 23.1818 75.2609 23.118 75.1472 23.0043C75.0336 22.8907 74.9697 22.7365 74.9697 22.5758C74.9697 22.4151 75.0336 22.2609 75.1472 22.1472C75.2609 22.0336 75.4151 21.9697 75.5758 21.9697C75.7365 21.9697 75.8907 22.0336 76.0043 22.1472C76.118 22.2609 76.1818 22.4151 76.1818 22.5758Z" fill="black"/>
<path d="M77.3937 14.697C77.5544 14.697 77.7085 14.6332 77.8222 14.5195C77.9359 14.4059 77.9997 14.2517 77.9997 14.091C77.9997 13.9302 77.9359 13.7761 77.8222 13.6624C77.7085 13.5488 77.5544 13.4849 77.3937 13.4849C77.2329 13.4849 77.0788 13.5488 76.9651 13.6624C76.8515 13.7761 76.7876 13.9302 76.7876 14.091C76.7876 14.2517 76.8515 14.4059 76.9651 14.5195C77.0788 14.6332 77.2329 14.697 77.3937 14.697Z" fill="black"/>
<path d="M77.9997 15.9091C77.9997 16.0698 77.9359 16.224 77.8222 16.3376C77.7085 16.4513 77.5544 16.5152 77.3937 16.5152C77.2329 16.5152 77.0788 16.4513 76.9651 16.3376C76.8515 16.224 76.7876 16.0698 76.7876 15.9091C76.7876 15.7484 76.8515 15.5942 76.9651 15.4806C77.0788 15.3669 77.2329 15.303 77.3937 15.303C77.5544 15.303 77.7085 15.3669 77.8222 15.4806C77.9359 15.5942 77.9997 15.7484 77.9997 15.9091Z" fill="black"/>
<path d="M77.3937 23.1818C77.5544 23.1818 77.7085 23.118 77.8222 23.0043C77.9359 22.8907 77.9997 22.7365 77.9997 22.5758C77.9997 22.4151 77.9359 22.2609 77.8222 22.1472C77.7085 22.0336 77.5544 21.9697 77.3937 21.9697C77.2329 21.9697 77.0788 22.0336 76.9651 22.1472C76.8515 22.2609 76.7876 22.4151 76.7876 22.5758C76.7876 22.7365 76.8515 22.8907 76.9651 23.0043C77.0788 23.118 77.2329 23.1818 77.3937 23.1818Z" fill="black"/>
<path fill-rule="evenodd" clip-rule="evenodd" d="M73.1517 11.6667C72.6695 11.6667 72.207 11.8582 71.866 12.1992C71.5251 12.5402 71.3335 13.0027 71.3335 13.4849V23.1818C71.3335 23.6641 71.5251 24.1265 71.866 24.4675C72.207 24.8085 72.6695 25 73.1517 25H78.0002C78.4824 25 78.9448 24.8085 79.2858 24.4675C79.6268 24.1265 79.8183 23.6641 79.8183 23.1818V13.4849C79.8183 13.0027 79.6268 12.5402 79.2858 12.1992C78.9448 11.8582 78.4824 11.6667 78.0002 11.6667H73.1517ZM78.0002 12.8788H73.1517C72.9909 12.8788 72.8368 12.9427 72.7231 13.0563C72.6095 13.17 72.5456 13.3241 72.5456 13.4849V23.1818C72.5456 23.3426 72.6095 23.4967 72.7231 23.6104C72.8368 23.724 72.9909 23.7879 73.1517 23.7879H78.0002C78.1609 23.7879 78.3151 23.724 78.4287 23.6104C78.5424 23.4967 78.6062 23.3426 78.6062 23.1818V13.4849C78.6062 13.3241 78.5424 13.17 78.4287 13.0563C78.3151 12.9427 78.1609 12.8788 78.0002 12.8788Z" fill="black"/>
<path d="M89.6061 14.2121C89.7668 14.2121 89.921 14.1483 90.0346 14.0346C90.1483 13.921 90.2121 13.7668 90.2121 13.6061C90.2121 13.4453 90.1483 13.2912 90.0346 13.1775C89.921 13.0639 89.7668 13 89.6061 13C89.4453 13 89.2912 13.0639 89.1775 13.1775C89.0639 13.2912 89 13.4453 89 13.6061C89 13.7668 89.0639 13.921 89.1775 14.0346C89.2912 14.1483 89.4453 14.2121 89.6061 14.2121Z" fill="black"/>
<path d="M89.6061 16.2121C89.7668 16.2121 89.921 16.1483 90.0346 16.0346C90.1483 15.921 90.2121 15.7668 90.2121 15.6061C90.2121 15.4453 90.1483 15.2912 90.0346 15.1775C89.921 15.0639 89.7668 15 89.6061 15C89.4453 15 89.2912 15.0639 89.1775 15.1775C89.0639 15.2912 89 15.4453 89 15.6061C89 15.7668 89.0639 15.921 89.1775 16.0346C89.2912 16.1483 89.4453 16.2121 89.6061 16.2121Z" fill="black"/>
<path d="M89.6061 18.2121C89.7668 18.2121 89.921 18.1483 90.0346 18.0346C90.1483 17.921 90.2121 17.7668 90.2121 17.6061C90.2121 17.4453 90.1483 17.2912 90.0346 17.1775C89.921 17.0639 89.7668 17 89.6061 17C89.4453 17 89.2912 17.0639 89.1775 17.1775C89.0639 17.2912 89 17.4453 89 17.6061C89 17.7668 89.0639 17.921 89.1775 18.0346C89.2912 18.1483 89.4453 18.2121 89.6061 18.2121Z" fill="black"/>
<path d="M89.6061 20.2121C89.7668 20.2121 89.921 20.1483 90.0346 20.0346C90.1483 19.921 90.2121 19.7668 90.2121 19.6061C90.2121 19.4453 90.1483 19.2912 90.0346 19.1775C89.921 19.0639 89.7668 19 89.6061 19C89.4453 19 89.2912 19.0639 89.1775 19.1775C89.0639 19.2912 89 19.4453 89 19.6061C89 19.7668 89.0639 19.921 89.1775 20.0346C89.2912 20.1483 89.4453 20.2121 89.6061 20.2121Z" fill="black"/>
<path d="M89.6061 22.2121C89.7668 22.2121 89.921 22.1483 90.0346 22.0346C90.1483 21.921 90.2121 21.7668 90.2121 21.6061C90.2121 21.4453 90.1483 21.2912 90.0346 21.1775C89.921 21.0639 89.7668 21 89.6061 21C89.4453 21 89.2912 21.0639 89.1775 21.1775C89.0639 21.2912 89 21.4453 89 21.6061C89 21.7668 89.0639 21.921 89.1775 22.0346C89.2912 22.1483 89.4453 22.2121 89.6061 22.2121Z" fill="black"/>
<path d="M6.13667 11.9091C6.13667 12.2346 6.00737 12.5468 5.77721 12.7769C5.54706 13.0071 5.23489 13.1364 4.9094 13.1364C4.58391 13.1364 4.27175 13.0071 4.04159 12.7769C3.81143 12.5468 3.68213 12.2346 3.68213 11.9091C3.68213 11.5836 3.81143 11.2714 4.04159 11.0413C4.27175 10.8111 4.58391 10.6818 4.9094 10.6818C5.23489 10.6818 5.54706 10.8111 5.77721 11.0413C6.00737 11.2714 6.13667 11.5836 6.13667 11.9091Z" fill="black"/>
<path d="M4.9094 16.8182C5.23489 16.8182 5.54706 16.6889 5.77721 16.4587C6.00737 16.2286 6.13667 15.9164 6.13667 15.5909C6.13667 15.2654 6.00737 14.9533 5.77721 14.7231C5.54706 14.4929 5.23489 14.3636 4.9094 14.3636C4.58391 14.3636 4.27175 14.4929 4.04159 14.7231C3.81143 14.9533 3.68213 15.2654 3.68213 15.5909C3.68213 15.9164 3.81143 16.2286 4.04159 16.4587C4.27175 16.6889 4.58391 16.8182 4.9094 16.8182Z" fill="black"/>
<path d="M6.13667 29.0909C6.13667 29.4164 6.00737 29.7286 5.77721 29.9587C5.54706 30.1889 5.23489 30.3182 4.9094 30.3182C4.58391 30.3182 4.27175 30.1889 4.04159 29.9587C3.81143 29.7286 3.68213 29.4164 3.68213 29.0909C3.68213 28.7654 3.81143 28.4533 4.04159 28.2231C4.27175 27.9929 4.58391 27.8636 4.9094 27.8636C5.23489 27.8636 5.54706 27.9929 5.77721 28.2231C6.00737 28.4533 6.13667 28.7654 6.13667 29.0909Z" fill="black"/>
<path d="M4.9094 20.5C5.23489 20.5 5.54706 20.3707 5.77721 20.1406C6.00737 19.9104 6.13667 19.5982 6.13667 19.2727C6.13667 18.9473 6.00737 18.6351 5.77721 18.4049C5.54706 18.1748 5.23489 18.0455 4.9094 18.0455C4.58391 18.0455 4.27175 18.1748 4.04159 18.4049C3.81143 18.6351 3.68213 18.9473 3.68213 19.2727C3.68213 19.5982 3.81143 19.9104 4.04159 20.1406C4.27175 20.3707 4.58391 20.5 4.9094 20.5Z" fill="black"/>
<path d="M9.81832 11.9091C9.81832 12.2346 9.68901 12.5468 9.45885 12.7769C9.2287 13.0071 8.91654 13.1364 8.59104 13.1364C8.26555 13.1364 7.95339 13.0071 7.72323 12.7769C7.49307 12.5468 7.36377 12.2346 7.36377 11.9091C7.36377 11.5836 7.49307 11.2714 7.72323 11.0413C7.95339 10.8111 8.26555 10.6818 8.59104 10.6818C8.91654 10.6818 9.2287 10.8111 9.45885 11.0413C9.68901 11.2714 9.81832 11.5836 9.81832 11.9091Z" fill="black"/>
<path d="M8.59104 16.8182C8.91654 16.8182 9.2287 16.6889 9.45885 16.4587C9.68901 16.2286 9.81832 15.9164 9.81832 15.5909C9.81832 15.2654 9.68901 14.9533 9.45885 14.7231C9.2287 14.4929 8.91654 14.3636 8.59104 14.3636C8.26555 14.3636 7.95339 14.4929 7.72323 14.7231C7.49307 14.9533 7.36377 15.2654 7.36377 15.5909C7.36377 15.9164 7.49307 16.2286 7.72323 16.4587C7.95339 16.6889 8.26555 16.8182 8.59104 16.8182Z" fill="black"/>
<path d="M9.81832 29.0909C9.81832 29.4164 9.68901 29.7286 9.45885 29.9587C9.2287 30.1889 8.91654 30.3182 8.59104 30.3182C8.26555 30.3182 7.95339 30.1889 7.72323 29.9587C7.49307 29.7286 7.36377 29.4164 7.36377 29.0909C7.36377 28.7654 7.49307 28.4533 7.72323 28.2231C7.95339 27.9929 8.26555 27.8636 8.59104 27.8636C8.91654 27.8636 9.2287 27.9929 9.45885 28.2231C9.68901 28.4533 9.81832 28.7654 9.81832 29.0909Z" fill="black"/>
<path d="M12.2727 13.1364C12.5982 13.1364 12.9103 13.0071 13.1405 12.7769C13.3707 12.5468 13.5 12.2346 13.5 11.9091C13.5 11.5836 13.3707 11.2714 13.1405 11.0413C12.9103 10.8111 12.5982 10.6818 12.2727 10.6818C11.9472 10.6818 11.635 10.8111 11.4049 11.0413C11.1747 11.2714 11.0454 11.5836 11.0454 11.9091C11.0454 12.2346 11.1747 12.5468 11.4049 12.7769C11.635 13.0071 11.9472 13.1364 12.2727 13.1364Z" fill="black"/>
<path d="M13.5 15.5909C13.5 15.9164 13.3707 16.2286 13.1405 16.4587C12.9103 16.6889 12.5982 16.8182 12.2727 16.8182C11.9472 16.8182 11.635 16.6889 11.4049 16.4587C11.1747 16.2286 11.0454 15.9164 11.0454 15.5909C11.0454 15.2654 11.1747 14.9533 11.4049 14.7231C11.635 14.4929 11.9472 14.3636 12.2727 14.3636C12.5982 14.3636 12.9103 14.4929 13.1405 14.7231C13.3707 14.9533 13.5 15.2654 13.5 15.5909Z" fill="black"/>
<path d="M12.2727 30.3182C12.5982 30.3182 12.9103 30.1889 13.1405 29.9587C13.3707 29.7286 13.5 29.4164 13.5 29.0909C13.5 28.7654 13.3707 28.4533 13.1405 28.2231C12.9103 27.9929 12.5982 27.8636 12.2727 27.8636C11.9472 27.8636 11.635 27.9929 11.4049 28.2231C11.1747 28.4533 11.0454 28.7654 11.0454 29.0909C11.0454 29.4164 11.1747 29.7286 11.4049 29.9587C11.635 30.1889 11.9472 30.3182 12.2727 30.3182Z" fill="black"/>
<path fill-rule="evenodd" clip-rule="evenodd" d="M3.68182 7C2.70534 7 1.76885 7.3879 1.07838 8.07838C0.387905 8.76885 0 9.70534 0 10.6818V30.3182C0 31.2947 0.387905 32.2311 1.07838 32.9216C1.76885 33.6121 2.70534 34 3.68182 34H13.5C14.4765 34 15.413 33.6121 16.1034 32.9216C16.7939 32.2311 17.1818 31.2947 17.1818 30.3182V10.6818C17.1818 9.70534 16.7939 8.76885 16.1034 8.07838C15.413 7.3879 14.4765 7 13.5 7H3.68182ZM13.5 9.45455H3.68182C3.35633 9.45455 3.04416 9.58385 2.81401 9.81401C2.58385 10.0442 2.45455 10.3563 2.45455 10.6818V30.3182C2.45455 30.6437 2.58385 30.9558 2.81401 31.186C3.04416 31.4162 3.35633 31.5455 3.68182 31.5455H13.5C13.8255 31.5455 14.1377 31.4162 14.3678 31.186C14.598 30.9558 14.7273 30.6437 14.7273 30.3182V10.6818C14.7273 10.3563 14.598 10.0442 14.3678 9.81401C14.1377 9.58385 13.8255 9.45455 13.5 9.45455Z" fill="black"/>
</svg>
