<svg xmlns="http://www.w3.org/2000/svg" width="60" height="60" viewBox="0 0 60 60"><defs><style>.a{fill:#1a9bfb;}.b{fill:#fff;}</style></defs><g transform="translate(-0.7 -0.6)"><circle class="a" cx="30" cy="30" r="30" transform="translate(0.7 0.6)"/><g transform="translate(-513.176 358.612)"><path class="b" d="M548.983-317.768c.057-.05.11-.093.158-.141q5.827-5.825,11.65-11.654a3.65,3.65,0,0,0,.587-.75,3.353,3.353,0,0,0-.651-4.245q-4.631-4.638-9.27-9.268a3.478,3.478,0,0,0-5.229,0q-5.681,5.678-11.359,11.357c-.105.105-.206.215-.287.3Zm-17.417-11.371a.708.708,0,0,0-.1.069c-1.521,1.519-3.058,3.023-4.558,4.564a3.351,3.351,0,0,0,.064,4.906q3.515,3.547,7.065,7.059a6.77,6.77,0,0,0,8.01,1.272c1.6-.829,2.628-2.306,3.885-3.426l-1.972-1.984c-.667.668-1.36,1.366-2.057,2.061a4.12,4.12,0,0,1-5.982.019q-3.449-3.436-6.887-6.884c-.484-.484-.484-.733,0-1.217q2.089-2.09,4.183-4.174a2.065,2.065,0,0,1,.373-.243Z" transform="translate(0 0)"/><path class="b" d="M685.892-47.43a1.515,1.515,0,0,1-.849-1.495,1.276,1.276,0,0,1,.976-1.263,3.08,3.08,0,0,1,.485-.03q8.231,0,16.463,0a1.857,1.857,0,0,1,.652.077,1.274,1.274,0,0,1,.8,1.185,1.457,1.457,0,0,1-.6,1.35l-.266.174Z" transform="translate(-142.029 -263.057)"/></g></g></svg>