<svg width="38" height="38" viewBox="0 0 38 38" fill="none" xmlns="http://www.w3.org/2000/svg">
<path d="M19.9971 11.0945C19.9971 10.5439 19.5507 10.0975 19.0001 10.0975C18.4494 10.0975 18.0031 10.5439 18.0031 11.0945L18.0031 18.003L11.0946 18.003C10.544 18.003 10.0976 18.4494 10.0976 19C10.0976 19.5506 10.544 19.997 11.0946 19.997L18.0031 19.997L18.0031 26.9055C18.0031 27.4561 18.4494 27.9025 19.0001 27.9025C19.5507 27.9025 19.9971 27.4561 19.9971 26.9055V19.997H26.9055C27.4562 19.997 27.9026 19.5506 27.9026 19C27.9026 18.4494 27.4562 18.003 26.9055 18.003H19.9971V11.0945Z" fill="#9098A3"/>
<circle cx="19" cy="19" r="18" stroke="#E4E7F2" stroke-width="2"/>
</svg>
