<svg width="50" height="50" viewBox="0 0 50 50" fill="none" xmlns="http://www.w3.org/2000/svg">
<circle cx="25" cy="25" r="24" fill="#F1F7FF" stroke="#E4E7F2" stroke-width="2"/>
<path d="M27.12 18L28.95 20H33V32H17V20H21.05L22.88 18H27.12ZM28 16H22L20.17 18H17C15.9 18 15 18.9 15 20V32C15 33.1 15.9 34 17 34H33C34.1 34 35 33.1 35 32V20C35 18.9 34.1 18 33 18H29.83L28 16ZM25 23C26.65 23 28 24.35 28 26C28 27.65 26.65 29 25 29C23.35 29 22 27.65 22 26C22 24.35 23.35 23 25 23ZM25 21C22.24 21 20 23.24 20 26C20 28.76 22.24 31 25 31C27.76 31 30 28.76 30 26C30 23.24 27.76 21 25 21Z" fill="#589AEC"/>
</svg>
