<svg width="35" height="35" viewBox="0 0 35 35" fill="none" xmlns="http://www.w3.org/2000/svg">
<circle cx="17.5" cy="17.5" r="17.5" fill="#E76C39"/>
<path d="M22.2845 8H13.7069C12.7634 8 12 8.73409 12 9.68409V25.2295C12 26.1795 12.7634 27 13.7069 27H22.2845C23.228 27 24 26.1795 24 25.2295V9.68409C24 8.73409 23.228 8 22.2845 8ZM22.2845 23.5455H13.7069V11.4545H22.2845V23.5455ZM18.6819 18.5709V20.0823L21.4267 17.5L18.6819 14.9264V16.3945C16.0143 16.7659 14.9507 18.6055 14.5647 20.4536C15.5168 19.1582 16.7777 18.5709 18.6819 18.5709Z" fill="white"/>
</svg>
