<svg xmlns="http://www.w3.org/2000/svg" width="60" height="60" viewBox="0 0 60 60"><defs><style>.a{fill:#1a9bfb;}.b{fill:#fff;}</style></defs><g transform="translate(-305 -155)"><g transform="translate(304.3 154.4)"><circle class="a" cx="30" cy="30" r="30" transform="translate(0.7 0.6)"/></g><g transform="translate(200.163 111.988)"><g transform="translate(118.837 57.012)"><path class="b" d="M125.6,194.7c-.107.088-.2.155-.284.236-1.144,1.141-2.284,2.287-3.431,3.425a1.016,1.016,0,0,0-.309.965c.19,1.158.347,2.322.525,3.483a.546.546,0,0,1-.177.527c-.928.912-1.845,1.835-2.763,2.758a.822.822,0,0,0,0,1.312q1.021,1.027,2.048,2.048a.842.842,0,0,0,1.379,0c.914-.911,1.83-1.821,2.735-2.741a.519.519,0,0,1,.5-.165c1.171.178,2.345.34,3.514.528a1,1,0,0,0,.938-.3c1.146-1.154,2.3-2.3,3.447-3.454a2.215,2.215,0,0,0,.2-.278c.09.074.123.1.153.128.536.506.913.5,1.429-.012q.7-.7,1.4-1.4a.836.836,0,0,0,0-1.357c-.345-.347-.694-.691-1.068-1.063.273-.261.52-.488.757-.725.556-.557,1.128-1.1,1.654-1.684a1.287,1.287,0,0,0-.079-1.769,1.3,1.3,0,0,0-1.772-.062c-.176.148-.335.317-.5.48-.631.628-1.261,1.256-1.852,1.846l-2.839-2.835c.225-.224.479-.474.73-.726.533-.535,1.079-1.058,1.592-1.613a1.2,1.2,0,0,0,.215-1.378,1.253,1.253,0,0,0-1.124-.786,1.386,1.386,0,0,0-1.117.478c-.729.737-1.463,1.469-2.235,2.243-.392-.406-.754-.8-1.135-1.171a.767.767,0,0,0-1.1-.034q-.886.849-1.735,1.737a.781.781,0,0,0-.011,1.037C125.378,194.468,125.469,194.555,125.6,194.7Z" transform="translate(-118.837 -177.573)"/><path class="b" d="M284.176,60.224a4.222,4.222,0,0,1-.408.582q-1.322,1.349-2.67,2.672a.57.57,0,0,0-.192.552c.181,1.16.337,2.324.526,3.482a1.019,1.019,0,0,1-.317.963c-1.147,1.138-2.286,2.284-3.431,3.424a3.142,3.142,0,0,1-.281.223c.124.134.212.222.292.317a.783.783,0,0,1,0,1.061q-.849.886-1.736,1.736a.775.775,0,0,1-1.058,0c-.072-.061-.137-.13-.2-.2l-8.547-8.547c-.54-.54-.54-.931,0-1.469q.678-.68,1.357-1.358a.854.854,0,0,1,1.407-.019c.037.035.078.066.13.109,1.193-1.194,2.387-2.373,3.56-3.574a1.229,1.229,0,0,1,1.2-.411c1.093.195,2.2.331,3.294.5a.648.648,0,0,0,.638-.2c.87-.9,1.756-1.775,2.648-2.649a4.207,4.207,0,0,1,.582-.408h.315a5.019,5.019,0,0,1,.569.42q.967.94,1.907,1.907a5.041,5.041,0,0,1,.42.569Z" transform="translate(-251.938 -57.012)"/><path class="b" d="M125.6,194.7c-.133-.143-.224-.23-.3-.327a.781.781,0,0,1,.011-1.037q.849-.887,1.735-1.737a.767.767,0,0,1,1.1.034c.381.373.743.765,1.135,1.171.772-.774,1.506-1.506,2.235-2.243a1.386,1.386,0,0,1,1.117-.478,1.253,1.253,0,0,1,1.124.786,1.2,1.2,0,0,1-.215,1.378c-.513.554-1.059,1.077-1.592,1.613-.251.252-.505.5-.73.726l2.839,2.835c.591-.589,1.221-1.218,1.852-1.846.164-.163.322-.332.5-.48a1.3,1.3,0,0,1,1.772.062,1.287,1.287,0,0,1,.079,1.769c-.526.584-1.1,1.127-1.654,1.684-.237.237-.484.464-.757.725.374.371.722.715,1.068,1.063a.836.836,0,0,1,0,1.357q-.7.7-1.4,1.4c-.516.515-.893.517-1.429.012-.03-.028-.064-.053-.153-.128a2.215,2.215,0,0,1-.2.278c-1.148,1.153-2.3,2.3-3.447,3.454a1,1,0,0,1-.938.3c-1.169-.189-2.343-.35-3.514-.528a.519.519,0,0,0-.5.165c-.9.92-1.821,1.829-2.735,2.741a.842.842,0,0,1-1.379,0q-1.025-1.023-2.048-2.048a.822.822,0,0,1,0-1.312c.918-.922,1.835-1.846,2.763-2.758a.546.546,0,0,0,.177-.527c-.178-1.16-.335-2.324-.525-3.483a1.016,1.016,0,0,1,.309-.965c1.147-1.138,2.287-2.284,3.431-3.425C125.4,194.853,125.495,194.786,125.6,194.7Z" transform="translate(-118.837 -177.573)"/></g></g></g></svg>