<svg width="50" height="50" viewBox="0 0 50 50" fill="none" xmlns="http://www.w3.org/2000/svg">
<circle cx="25" cy="25" r="24" fill="#4D95EA" fill-opacity="0.09" stroke="#E4E7F2" stroke-width="2"/>
<path d="M25 25C23.9 25 23 24.1 23 23C23 21.9 23.9 21 25 21C26.1 21 27 21.9 27 23C27 24.1 26.1 25 25 25ZM31 23.2C31 19.57 28.35 17 25 17C21.65 17 19 19.57 19 23.2C19 25.54 20.95 28.64 25 32.34C29.05 28.64 31 25.54 31 23.2ZM25 15C29.2 15 33 18.22 33 23.2C33 26.52 30.33 30.45 25 35C19.67 30.45 17 26.52 17 23.2C17 18.22 20.8 15 25 15Z" fill="#589AEC"/>
</svg>
