<svg width="38" height="38" viewBox="0 0 38 38" fill="none" xmlns="http://www.w3.org/2000/svg">
<path d="M25.295 14.115C25.6844 13.7256 25.6844 13.0944 25.295 12.705C24.9056 12.3156 24.2744 12.3156 23.885 12.705L19 17.59L14.115 12.705C13.7256 12.3156 13.0944 12.3156 12.705 12.705C12.3156 13.0944 12.3156 13.7256 12.705 14.115L17.59 19L12.705 23.885C12.3156 24.2744 12.3156 24.9056 12.705 25.295C13.0944 25.6844 13.7256 25.6844 14.115 25.295L19 20.41L23.885 25.295C24.2744 25.6844 24.9056 25.6844 25.295 25.295C25.6844 24.9056 25.6844 24.2744 25.295 23.885L20.41 19L25.295 14.115Z" fill="#9098A3"/>
<circle cx="19" cy="19" r="18" stroke="#E4E7F2" stroke-width="2"/>
</svg>
